<svg width="400" height="400" viewBox="0 0 400 400" xmlns="http://www.w3.org/2000/svg">
  <defs>
    <linearGradient id="skyGradient" x1="0%" y1="0%" x2="0%" y2="100%">
      <stop offset="0%" style="stop-color:#87CEEB;stop-opacity:1" />
      <stop offset="100%" style="stop-color:#E0F6FF;stop-opacity:1" />
    </linearGradient>
    <linearGradient id="groundGradient" x1="0%" y1="0%" x2="0%" y2="100%">
      <stop offset="0%" style="stop-color:#8D6E63;stop-opacity:1" />
      <stop offset="100%" style="stop-color:#5D4037;stop-opacity:1" />
    </linearGradient>
    <linearGradient id="plantGradient" x1="0%" y1="100%" x2="0%" y2="0%">
      <stop offset="0%" style="stop-color:#2E7D32;stop-opacity:1" />
      <stop offset="100%" style="stop-color:#4CAF50;stop-opacity:1" />
    </linearGradient>
    <radialGradient id="sunGradient" cx="50%" cy="50%" r="50%">
      <stop offset="0%" style="stop-color:#FFD54F;stop-opacity:1" />
      <stop offset="100%" style="stop-color:#FF8F00;stop-opacity:1" />
    </radialGradient>
  </defs>
  
  <!-- Sky background -->
  <rect width="400" height="250" fill="url(#skyGradient)"/>
  
  <!-- Ground -->
  <rect y="250" width="400" height="150" fill="url(#groundGradient)"/>
  
  <!-- Sun -->
  <circle cx="320" cy="80" r="25" fill="url(#sunGradient)"/>
  <g stroke="#FFD54F" stroke-width="3" opacity="0.8">
    <line x1="295" y1="55" x2="290" y2="50"/>
    <line x1="295" y1="105" x2="290" y2="110"/>
    <line x1="345" y1="55" x2="350" y2="50"/>
    <line x1="345" y1="105" x2="350" y2="110"/>
    <line x1="270" y1="80" x2="265" y2="80"/>
    <line x1="370" y1="80" x2="375" y2="80"/>
    <line x1="295" y1="105" x2="290" y2="110"/>
    <line x1="345" y1="55" x2="350" y2="50"/>
  </g>
  
  <!-- Clouds -->
  <g fill="white" opacity="0.8">
    <ellipse cx="100" cy="60" rx="20" ry="12"/>
    <ellipse cx="115" cy="55" rx="15" ry="10"/>
    <ellipse cx="85" cy="55" rx="15" ry="10"/>
    
    <ellipse cx="250" cy="40" rx="18" ry="10"/>
    <ellipse cx="265" cy="35" rx="12" ry="8"/>
    <ellipse cx="235" cy="35" rx="12" ry="8"/>
  </g>
  
  <!-- Farm field rows -->
  <g stroke="#6D4C41" stroke-width="2" opacity="0.6">
    <line x1="0" y1="270" x2="400" y2="275"/>
    <line x1="0" y1="290" x2="400" y2="295"/>
    <line x1="0" y1="310" x2="400" y2="315"/>
    <line x1="0" y1="330" x2="400" y2="335"/>
  </g>
  
  <!-- Main wheat/crop plants -->
  <g>
    <!-- Plant 1 -->
    <g transform="translate(80, 250)">
      <rect x="-2" y="20" width="4" height="60" fill="#8BC34A"/>
      <ellipse cx="0" cy="20" rx="8" ry="25" fill="url(#plantGradient)"/>
      <ellipse cx="-5" cy="25" rx="6" ry="20" fill="#66BB6A" opacity="0.8"/>
      <ellipse cx="5" cy="25" rx="6" ry="20" fill="#66BB6A" opacity="0.8"/>
      <!-- Grain head -->
      <ellipse cx="0" cy="10" rx="4" ry="15" fill="#FFC107"/>
      <g stroke="#FF8F00" stroke-width="1">
        <line x1="-3" y1="5" x2="-5" y2="2"/>
        <line x1="3" y1="5" x2="5" y2="2"/>
        <line x1="-2" y1="8" x2="-4" y2="5"/>
        <line x1="2" y1="8" x2="4" y2="5"/>
      </g>
    </g>
    
    <!-- Plant 2 -->
    <g transform="translate(150, 250)">
      <rect x="-2" y="15" width="4" height="65" fill="#8BC34A"/>
      <ellipse cx="0" cy="15" rx="10" ry="30" fill="url(#plantGradient)"/>
      <ellipse cx="-6" cy="20" rx="7" ry="25" fill="#66BB6A" opacity="0.8"/>
      <ellipse cx="6" cy="20" rx="7" ry="25" fill="#66BB6A" opacity="0.8"/>
      <!-- Grain head -->
      <ellipse cx="0" cy="5" rx="5" ry="18" fill="#FFC107"/>
      <g stroke="#FF8F00" stroke-width="1">
        <line x1="-4" y1="0" x2="-6" y2="-3"/>
        <line x1="4" y1="0" x2="6" y2="-3"/>
        <line x1="-3" y1="3" x2="-5" y2="0"/>
        <line x1="3" y1="3" x2="5" y2="0"/>
      </g>
    </g>
    
    <!-- Plant 3 -->
    <g transform="translate(220, 250)">
      <rect x="-2" y="25" width="4" height="55" fill="#8BC34A"/>
      <ellipse cx="0" cy="25" rx="9" ry="28" fill="url(#plantGradient)"/>
      <ellipse cx="-5" cy="30" rx="6" ry="22" fill="#66BB6A" opacity="0.8"/>
      <ellipse cx="5" cy="30" rx="6" ry="22" fill="#66BB6A" opacity="0.8"/>
      <!-- Grain head -->
      <ellipse cx="0" cy="15" rx="4" ry="16" fill="#FFC107"/>
    </g>
    
    <!-- Smaller plants in background -->
    <g opacity="0.7">
      <g transform="translate(50, 265)">
        <rect x="-1" y="10" width="2" height="35" fill="#8BC34A"/>
        <ellipse cx="0" cy="10" rx="5" ry="15" fill="#66BB6A"/>
        <ellipse cx="0" cy="5" rx="2" ry="8" fill="#FFC107"/>
      </g>
      
      <g transform="translate(120, 270)">
        <rect x="-1" y="8" width="2" height="30" fill="#8BC34A"/>
        <ellipse cx="0" cy="8" rx="4" ry="12" fill="#66BB6A"/>
        <ellipse cx="0" cy="3" rx="2" ry="7" fill="#FFC107"/>
      </g>
      
      <g transform="translate(180, 265)">
        <rect x="-1" y="12" width="2" height="32" fill="#8BC34A"/>
        <ellipse cx="0" cy="12" rx="5" ry="14" fill="#66BB6A"/>
        <ellipse cx="0" cy="7" rx="2" ry="8" fill="#FFC107"/>
      </g>
      
      <g transform="translate(250, 270)">
        <rect x="-1" y="10" width="2" height="28" fill="#8BC34A"/>
        <ellipse cx="0" cy="10" rx="4" ry="13" fill="#66BB6A"/>
        <ellipse cx="0" cy="5" rx="2" ry="7" fill="#FFC107"/>
      </g>
      
      <g transform="translate(300, 268)">
        <rect x="-1" y="15" width="2" height="25" fill="#8BC34A"/>
        <ellipse cx="0" cy="15" rx="4" ry="12" fill="#66BB6A"/>
        <ellipse cx="0" cy="10" rx="2" ry="6" fill="#FFC107"/>
      </g>
    </g>
  </g>
  
  <!-- Tractor/farming equipment (simplified) -->
  <g transform="translate(320, 280)">
    <!-- Tractor body -->
    <rect x="0" y="0" width="40" height="20" rx="3" fill="#FF5722"/>
    <rect x="5" y="5" width="15" height="10" fill="#B71C1C" opacity="0.8"/>
    
    <!-- Wheels -->
    <circle cx="8" cy="25" r="8" fill="#424242"/>
    <circle cx="8" cy="25" r="5" fill="#616161"/>
    <circle cx="32" cy="25" r="8" fill="#424242"/>
    <circle cx="32" cy="25" r="5" fill="#616161"/>
    
    <!-- Exhaust -->
    <rect x="35" y="-5" width="3" height="8" fill="#757575"/>
    <ellipse cx="36.5" cy="-8" rx="2" ry="3" fill="#90A4AE" opacity="0.6"/>
  </g>
  
  <!-- Trees in background -->
  <g opacity="0.6">
    <!-- Tree 1 -->
    <g transform="translate(350, 200)">
      <rect x="-3" y="30" width="6" height="50" fill="#8D6E63"/>
      <circle cx="0" cy="30" r="20" fill="#4CAF50"/>
      <circle cx="-8" cy="25" r="12" fill="#66BB6A"/>
      <circle cx="8" cy="25" r="12" fill="#66BB6A"/>
    </g>
    
    <!-- Tree 2 -->
    <g transform="translate(30, 190)">
      <rect x="-2" y="40" width="4" height="40" fill="#8D6E63"/>
      <circle cx="0" cy="40" r="15" fill="#4CAF50"/>
      <circle cx="-6" cy="35" r="10" fill="#66BB6A"/>
      <circle cx="6" cy="35" r="10" fill="#66BB6A"/>
    </g>
  </g>
  
  <!-- Birds -->
  <g stroke="#424242" stroke-width="2" fill="none" opacity="0.8">
    <path d="M 180 70 Q 185 65 190 70"/>
    <path d="M 190 70 Q 195 65 200 70"/>
    
    <path d="M 130 90 Q 135 85 140 90"/>
    <path d="M 140 90 Q 145 85 150 90"/>
  </g>
  
  <!-- AI/Technology elements -->
  <g transform="translate(200, 120)" opacity="0.7">
    <!-- Circuit pattern -->
    <g stroke="#00BCD4" stroke-width="2" fill="none">
      <circle cx="0" cy="0" r="8"/>
      <line x1="-8" y1="0" x2="-15" y2="0"/>
      <line x1="8" y1="0" x2="15" y2="0"/>
      <line x1="0" y1="-8" x2="0" y2="-15"/>
      <line x1="0" y1="8" x2="0" y2="15"/>
      <circle cx="-15" cy="0" r="3" fill="#00BCD4"/>
      <circle cx="15" cy="0" r="3" fill="#00BCD4"/>
      <circle cx="0" cy="-15" r="3" fill="#00BCD4"/>
      <circle cx="0" cy="15" r="3" fill="#00BCD4"/>
    </g>
  </g>
  
  <!-- Water droplets (irrigation) -->
  <g fill="#2196F3" opacity="0.6">
    <ellipse cx="160" cy="180" rx="3" ry="5" transform="rotate(15 160 180)"/>
    <ellipse cx="170" cy="185" rx="2" ry="4" transform="rotate(10 170 185)"/>
    <ellipse cx="155" cy="190" rx="2" ry="4" transform="rotate(20 155 190)"/>
  </g>
  
  <!-- Growth indicators/sparkles -->
  <g fill="#4CAF50" opacity="0.8">
    <polygon points="100,150 102,156 108,156 103,160 105,166 100,162 95,166 97,160 92,156 98,156"/>
    <polygon points="160,140 161,144 165,144 162,147 163,151 160,149 157,151 158,147 155,144 159,144"/>
    <polygon points="240,160 241,163 244,163 242,165 243,168 240,166 237,168 238,165 236,163 239,163"/>
  </g>
</svg>
